<svg width="1012" height="108" viewBox="0 0 1012 108" fill="none" xmlns="http://www.w3.org/2000/svg">
<path d="M2.38804 5.97748e-05C-48.2369 -4.52433e-05 722.845 4.77892e-05 722.845 4.77892e-05L722.845 107.964C722.845 107.964 242.541 107.964 161.443 107.964C80.3447 107.964 106.616 0.000275989 2.38804 5.97748e-05Z" fill="#0E459A"/>
<path d="M1009 4.99983e-05C1059.62 -5.50198e-05 288.543 3.80132e-05 288.543 3.80132e-05L288.543 107.964C288.543 107.964 768.847 107.964 849.945 107.964C931.043 107.964 904.772 0.000266212 1009 4.99983e-05Z" fill="#0E459A"/>
<path d="M240.761 61V46.4545H242.523V52.9318H250.278V46.4545H252.04V61H250.278V54.4943H242.523V61H240.761ZM259.471 61.2273C258.486 61.2273 257.622 60.9929 256.878 60.5241C256.14 60.0554 255.562 59.3996 255.145 58.5568C254.733 57.714 254.527 56.7292 254.527 55.6023C254.527 54.4659 254.733 53.474 255.145 52.6264C255.562 51.7789 256.14 51.1207 256.878 50.652C257.622 50.1832 258.486 49.9489 259.471 49.9489C260.455 49.9489 261.317 50.1832 262.056 50.652C262.799 51.1207 263.377 51.7789 263.789 52.6264C264.205 53.474 264.414 54.4659 264.414 55.6023C264.414 56.7292 264.205 57.714 263.789 58.5568C263.377 59.3996 262.799 60.0554 262.056 60.5241C261.317 60.9929 260.455 61.2273 259.471 61.2273ZM259.471 59.7216C260.219 59.7216 260.834 59.5298 261.317 59.1463C261.8 58.7628 262.158 58.2585 262.39 57.6335C262.622 57.0085 262.738 56.3314 262.738 55.6023C262.738 54.8731 262.622 54.1937 262.39 53.5639C262.158 52.9342 261.8 52.4252 261.317 52.0369C260.834 51.6487 260.219 51.4545 259.471 51.4545C258.722 51.4545 258.107 51.6487 257.624 52.0369C257.141 52.4252 256.784 52.9342 256.552 53.5639C256.32 54.1937 256.204 54.8731 256.204 55.6023C256.204 56.3314 256.32 57.0085 256.552 57.6335C256.784 58.2585 257.141 58.7628 257.624 59.1463C258.107 59.5298 258.722 59.7216 259.471 59.7216ZM266.672 61V50.0909H268.292V51.7955H268.434C268.661 51.2131 269.028 50.7609 269.535 50.4389C270.041 50.1122 270.65 49.9489 271.36 49.9489C272.08 49.9489 272.679 50.1122 273.157 50.4389C273.64 50.7609 274.016 51.2131 274.286 51.7955H274.4C274.679 51.232 275.098 50.7846 275.657 50.4531C276.215 50.117 276.885 49.9489 277.667 49.9489C278.642 49.9489 279.44 50.2543 280.06 50.8651C280.68 51.4711 280.991 52.4157 280.991 53.6989V61H279.314V53.6989C279.314 52.8939 279.094 52.3187 278.654 51.973C278.214 51.6274 277.695 51.4545 277.099 51.4545C276.331 51.4545 275.737 51.6866 275.316 52.1506C274.894 52.6098 274.684 53.1922 274.684 53.8977V61H272.979V53.5284C272.979 52.9081 272.778 52.4086 272.375 52.0298C271.973 51.6463 271.455 51.4545 270.82 51.4545C270.384 51.4545 269.977 51.5705 269.599 51.8026C269.224 52.0346 268.921 52.3565 268.689 52.7685C268.462 53.1757 268.349 53.6468 268.349 54.1818V61H266.672ZM288.329 61.2273C287.278 61.2273 286.371 60.9953 285.609 60.5312C284.851 60.0625 284.267 59.4091 283.855 58.571C283.447 57.7282 283.244 56.7481 283.244 55.6307C283.244 54.5133 283.447 53.5284 283.855 52.6761C284.267 51.8191 284.839 51.1515 285.573 50.6733C286.312 50.1903 287.174 49.9489 288.159 49.9489C288.727 49.9489 289.288 50.0436 289.842 50.233C290.396 50.4223 290.9 50.7301 291.355 51.1562C291.809 51.5777 292.171 52.1364 292.441 52.8324C292.711 53.5284 292.846 54.3854 292.846 55.4034V56.1136H284.437V54.6648H291.142C291.142 54.0492 291.018 53.5 290.772 53.017C290.531 52.5341 290.185 52.1529 289.735 51.8736C289.29 51.5942 288.765 51.4545 288.159 51.4545C287.491 51.4545 286.913 51.6203 286.426 51.9517C285.943 52.2784 285.571 52.7045 285.311 53.2301C285.05 53.7557 284.92 54.3191 284.92 54.9205V55.8864C284.92 56.7102 285.062 57.4086 285.346 57.9815C285.635 58.5497 286.035 58.983 286.546 59.2812C287.058 59.5748 287.652 59.7216 288.329 59.7216C288.769 59.7216 289.167 59.66 289.522 59.5369C289.882 59.4091 290.192 59.2197 290.453 58.9688C290.713 58.7131 290.914 58.3958 291.056 58.017L292.676 58.4716C292.505 59.0208 292.219 59.5038 291.816 59.9205C291.414 60.3324 290.917 60.6544 290.325 60.8864C289.733 61.1136 289.068 61.2273 288.329 61.2273Z" fill="white"/>
<path d="M386.358 61H384.511L389.852 46.4545H391.67L397.011 61H395.165L390.818 48.7557H390.705L386.358 61ZM387.04 55.3182H394.483V56.8807H387.04V55.3182ZM398.977 61V46.4545H400.653V51.8239H400.795C400.918 51.6345 401.089 51.393 401.307 51.0994C401.529 50.8011 401.846 50.536 402.258 50.304C402.675 50.0672 403.238 49.9489 403.949 49.9489C404.867 49.9489 405.677 50.1785 406.378 50.6378C407.078 51.0971 407.625 51.7481 408.018 52.5909C408.411 53.4337 408.608 54.428 408.608 55.5739C408.608 56.7292 408.411 57.7306 408.018 58.5781C407.625 59.4209 407.081 60.0743 406.385 60.5384C405.689 60.9976 404.886 61.2273 403.977 61.2273C403.276 61.2273 402.715 61.1113 402.294 60.8793C401.872 60.6425 401.548 60.375 401.321 60.0767C401.093 59.7737 400.918 59.5227 400.795 59.3239H400.596V61H398.977ZM400.625 55.5455C400.625 56.3693 400.745 57.0961 400.987 57.7259C401.228 58.3509 401.581 58.8409 402.045 59.196C402.509 59.5464 403.077 59.7216 403.75 59.7216C404.45 59.7216 405.035 59.5369 405.504 59.1676C405.977 58.7936 406.333 58.2917 406.569 57.6619C406.811 57.0275 406.932 56.322 406.932 55.5455C406.932 54.7784 406.813 54.0871 406.576 53.4716C406.344 52.8513 405.992 52.3613 405.518 52.0014C405.049 51.6368 404.46 51.4545 403.75 51.4545C403.068 51.4545 402.495 51.6274 402.031 51.973C401.567 52.3139 401.217 52.7921 400.98 53.4077C400.743 54.0185 400.625 54.7311 400.625 55.5455ZM415.303 61.2273C414.319 61.2273 413.454 60.9929 412.711 60.5241C411.972 60.0554 411.395 59.3996 410.978 58.5568C410.566 57.714 410.36 56.7292 410.36 55.6023C410.36 54.4659 410.566 53.474 410.978 52.6264C411.395 51.7789 411.972 51.1207 412.711 50.652C413.454 50.1832 414.319 49.9489 415.303 49.9489C416.288 49.9489 417.15 50.1832 417.889 50.652C418.632 51.1207 419.21 51.7789 419.622 52.6264C420.038 53.474 420.247 54.4659 420.247 55.6023C420.247 56.7292 420.038 57.714 419.622 58.5568C419.21 59.3996 418.632 60.0554 417.889 60.5241C417.15 60.9929 416.288 61.2273 415.303 61.2273ZM415.303 59.7216C416.052 59.7216 416.667 59.5298 417.15 59.1463C417.633 58.7628 417.99 58.2585 418.222 57.6335C418.454 57.0085 418.57 56.3314 418.57 55.6023C418.57 54.8731 418.454 54.1937 418.222 53.5639C417.99 52.9342 417.633 52.4252 417.15 52.0369C416.667 51.6487 416.052 51.4545 415.303 51.4545C414.555 51.4545 413.94 51.6487 413.457 52.0369C412.974 52.4252 412.616 52.9342 412.384 53.5639C412.152 54.1937 412.036 54.8731 412.036 55.6023C412.036 56.3314 412.152 57.0085 412.384 57.6335C412.616 58.2585 412.974 58.7628 413.457 59.1463C413.94 59.5298 414.555 59.7216 415.303 59.7216ZM429.38 56.5398V50.0909H431.056V61H429.38V59.1534H429.267C429.011 59.7074 428.613 60.1785 428.073 60.5668C427.534 60.9503 426.852 61.142 426.028 61.142C425.346 61.142 424.74 60.9929 424.21 60.6946C423.679 60.3916 423.263 59.937 422.96 59.331C422.657 58.7202 422.505 57.9508 422.505 57.0227V50.0909H424.181V56.9091C424.181 57.7045 424.404 58.339 424.849 58.8125C425.299 59.286 425.872 59.5227 426.568 59.5227C426.984 59.5227 427.408 59.4162 427.839 59.2031C428.275 58.9901 428.639 58.6634 428.933 58.223C429.231 57.7827 429.38 57.2216 429.38 56.5398ZM438.571 50.0909V51.5114H432.917V50.0909H438.571ZM434.565 47.4773H436.241V57.875C436.241 58.3485 436.31 58.7036 436.447 58.9403C436.589 59.1723 436.769 59.3286 436.987 59.4091C437.209 59.4848 437.444 59.5227 437.69 59.5227C437.875 59.5227 438.026 59.5133 438.144 59.4943C438.263 59.4706 438.358 59.4517 438.429 59.4375L438.769 60.9432C438.656 60.9858 438.497 61.0284 438.294 61.071C438.09 61.1184 437.832 61.142 437.519 61.142C437.046 61.142 436.582 61.0402 436.127 60.8366C435.678 60.633 435.304 60.3229 435.005 59.9062C434.712 59.4896 434.565 58.964 434.565 58.3295V47.4773Z" fill="white"/>
<path d="M539.716 50.0909C539.631 49.3712 539.285 48.8125 538.679 48.4148C538.073 48.017 537.33 47.8182 536.449 47.8182C535.805 47.8182 535.241 47.9223 534.759 48.1307C534.28 48.339 533.906 48.6255 533.636 48.9901C533.371 49.3546 533.239 49.7689 533.239 50.233C533.239 50.6212 533.331 50.955 533.516 51.2344C533.705 51.509 533.946 51.7386 534.24 51.9233C534.534 52.1032 534.841 52.2524 535.163 52.3707C535.485 52.4844 535.781 52.5767 536.051 52.6477L537.528 53.0455C537.907 53.1449 538.329 53.2822 538.793 53.4574C539.261 53.6326 539.709 53.8717 540.135 54.1747C540.566 54.473 540.921 54.8565 541.2 55.3253C541.48 55.794 541.619 56.3693 541.619 57.0511C541.619 57.8371 541.413 58.5473 541.001 59.1818C540.594 59.8163 539.998 60.3205 539.212 60.6946C538.43 61.0687 537.481 61.2557 536.364 61.2557C535.322 61.2557 534.42 61.0876 533.658 60.7514C532.9 60.4152 532.304 59.9465 531.868 59.3452C531.437 58.7438 531.193 58.0455 531.136 57.25H532.955C533.002 57.7992 533.187 58.2538 533.509 58.6136C533.835 58.9687 534.247 59.2339 534.744 59.4091C535.246 59.5795 535.786 59.6648 536.364 59.6648C537.036 59.6648 537.64 59.5559 538.175 59.3381C538.71 59.1155 539.134 58.8078 539.446 58.4148C539.759 58.017 539.915 57.553 539.915 57.0227C539.915 56.5398 539.78 56.1468 539.51 55.8438C539.24 55.5407 538.885 55.2945 538.445 55.1051C538.004 54.9157 537.528 54.75 537.017 54.608L535.227 54.0966C534.091 53.7699 533.191 53.3035 532.528 52.6974C531.866 52.0914 531.534 51.2983 531.534 50.3182C531.534 49.5038 531.754 48.7936 532.195 48.1875C532.64 47.5767 533.236 47.1032 533.984 46.767C534.737 46.4261 535.578 46.2557 536.506 46.2557C537.443 46.2557 538.277 46.4238 539.006 46.7599C539.735 47.0914 540.313 47.5459 540.739 48.1236C541.17 48.7012 541.397 49.357 541.42 50.0909H539.716ZM548.562 61.2273C547.511 61.2273 546.604 60.9953 545.842 60.5312C545.084 60.0625 544.499 59.4091 544.087 58.571C543.68 57.7282 543.477 56.7481 543.477 55.6307C543.477 54.5133 543.68 53.5284 544.087 52.6761C544.499 51.8191 545.072 51.1515 545.806 50.6733C546.545 50.1903 547.407 49.9489 548.391 49.9489C548.96 49.9489 549.521 50.0436 550.075 50.233C550.629 50.4223 551.133 50.7301 551.587 51.1562C552.042 51.5777 552.404 52.1364 552.674 52.8324C552.944 53.5284 553.079 54.3854 553.079 55.4034V56.1136H544.67V54.6648H551.374C551.374 54.0492 551.251 53.5 551.005 53.017C550.764 52.5341 550.418 52.1529 549.968 51.8736C549.523 51.5942 548.997 51.4545 548.391 51.4545C547.724 51.4545 547.146 51.6203 546.658 51.9517C546.175 52.2784 545.804 52.7045 545.543 53.2301C545.283 53.7557 545.153 54.3191 545.153 54.9205V55.8864C545.153 56.7102 545.295 57.4086 545.579 57.9815C545.868 58.5497 546.268 58.983 546.779 59.2812C547.291 59.5748 547.885 59.7216 548.562 59.7216C549.002 59.7216 549.4 59.66 549.755 59.5369C550.115 59.4091 550.425 59.2197 550.685 58.9688C550.946 58.7131 551.147 58.3958 551.289 58.017L552.908 58.4716C552.738 59.0208 552.452 59.5038 552.049 59.9205C551.647 60.3324 551.149 60.6544 550.558 60.8864C549.966 61.1136 549.3 61.2273 548.562 61.2273ZM555.329 61V50.0909H556.948V51.7386H557.062C557.26 51.1989 557.62 50.7609 558.141 50.4247C558.662 50.0885 559.249 49.9205 559.902 49.9205C560.026 49.9205 560.179 49.9228 560.364 49.9276C560.549 49.9323 560.688 49.9394 560.783 49.9489V51.6534C560.726 51.6392 560.596 51.6179 560.393 51.5895C560.194 51.5563 559.983 51.5398 559.76 51.5398C559.23 51.5398 558.757 51.651 558.34 51.8736C557.928 52.0914 557.601 52.3944 557.36 52.7827C557.123 53.1662 557.005 53.6042 557.005 54.0966V61H555.329ZM571.723 50.0909L567.688 61H565.984L561.95 50.0909H563.768L566.779 58.7841H566.893L569.904 50.0909H571.723ZM573.635 61V50.0909H575.311V61H573.635ZM574.487 48.2727C574.16 48.2727 573.879 48.1615 573.642 47.9389C573.41 47.7164 573.294 47.4489 573.294 47.1364C573.294 46.8239 573.41 46.5563 573.642 46.3338C573.879 46.1113 574.16 46 574.487 46C574.814 46 575.093 46.1113 575.325 46.3338C575.562 46.5563 575.68 46.8239 575.68 47.1364C575.68 47.4489 575.562 47.7164 575.325 47.9389C575.093 48.1615 574.814 48.2727 574.487 48.2727ZM582.513 61.2273C581.49 61.2273 580.609 60.9858 579.871 60.5028C579.132 60.0199 578.564 59.3546 578.166 58.5071C577.768 57.6596 577.57 56.6913 577.57 55.6023C577.57 54.4943 577.773 53.5166 578.18 52.669C578.592 51.8168 579.165 51.1515 579.899 50.6733C580.638 50.1903 581.5 49.9489 582.484 49.9489C583.251 49.9489 583.943 50.0909 584.558 50.375C585.174 50.6591 585.678 51.0568 586.071 51.5682C586.464 52.0795 586.708 52.6761 586.803 53.358H585.126C584.999 52.8608 584.714 52.4205 584.274 52.0369C583.839 51.6487 583.251 51.4545 582.513 51.4545C581.859 51.4545 581.286 51.625 580.794 51.9659C580.306 52.3021 579.925 52.7779 579.651 53.3935C579.381 54.0043 579.246 54.7216 579.246 55.5455C579.246 56.3883 579.378 57.1222 579.643 57.7472C579.913 58.3722 580.292 58.8575 580.78 59.2031C581.272 59.5488 581.85 59.7216 582.513 59.7216C582.948 59.7216 583.344 59.6458 583.699 59.4943C584.054 59.3428 584.355 59.125 584.601 58.8409C584.847 58.5568 585.022 58.2159 585.126 57.8182H586.803C586.708 58.4621 586.473 59.0421 586.099 59.5582C585.73 60.0696 585.24 60.4768 584.629 60.7798C584.023 61.0781 583.318 61.2273 582.513 61.2273ZM593.527 61.2273C592.476 61.2273 591.569 60.9953 590.807 60.5312C590.049 60.0625 589.464 59.4091 589.052 58.571C588.645 57.7282 588.441 56.7481 588.441 55.6307C588.441 54.5133 588.645 53.5284 589.052 52.6761C589.464 51.8191 590.037 51.1515 590.771 50.6733C591.51 50.1903 592.371 49.9489 593.356 49.9489C593.924 49.9489 594.486 50.0436 595.039 50.233C595.593 50.4223 596.098 50.7301 596.552 51.1562C597.007 51.5777 597.369 52.1364 597.639 52.8324C597.909 53.5284 598.044 54.3854 598.044 55.4034V56.1136H589.635V54.6648H596.339C596.339 54.0492 596.216 53.5 595.97 53.017C595.728 52.5341 595.383 52.1529 594.933 51.8736C594.488 51.5942 593.962 51.4545 593.356 51.4545C592.689 51.4545 592.111 51.6203 591.623 51.9517C591.14 52.2784 590.769 52.7045 590.508 53.2301C590.248 53.7557 590.118 54.3191 590.118 54.9205V55.8864C590.118 56.7102 590.26 57.4086 590.544 57.9815C590.833 58.5497 591.233 58.983 591.744 59.2812C592.255 59.5748 592.85 59.7216 593.527 59.7216C593.967 59.7216 594.365 59.66 594.72 59.5369C595.08 59.4091 595.39 59.2197 595.65 58.9688C595.911 58.7131 596.112 58.3958 596.254 58.017L597.873 58.4716C597.703 59.0208 597.416 59.5038 597.014 59.9205C596.611 60.3324 596.114 60.6544 595.522 60.8864C594.931 61.1136 594.265 61.2273 593.527 61.2273ZM608.021 52.5341L606.515 52.9602C606.42 52.7093 606.281 52.4654 606.096 52.2287C605.916 51.9872 605.67 51.7884 605.357 51.6321C605.045 51.4759 604.645 51.3977 604.157 51.3977C603.489 51.3977 602.933 51.5516 602.488 51.8594C602.048 52.1624 601.828 52.5483 601.828 53.017C601.828 53.4337 601.979 53.7628 602.282 54.0043C602.585 54.2457 603.059 54.447 603.703 54.608L605.322 55.0057C606.297 55.2424 607.024 55.6046 607.502 56.0923C607.98 56.5753 608.22 57.1979 608.22 57.9602C608.22 58.5852 608.04 59.1439 607.68 59.6364C607.325 60.1288 606.828 60.517 606.188 60.8011C605.549 61.0852 604.806 61.2273 603.958 61.2273C602.846 61.2273 601.925 60.9858 601.195 60.5028C600.466 60.0199 600.005 59.3144 599.811 58.3864L601.401 57.9886C601.553 58.5758 601.839 59.0161 602.261 59.3097C602.687 59.6032 603.243 59.75 603.93 59.75C604.711 59.75 605.331 59.5843 605.791 59.2528C606.255 58.9167 606.487 58.5142 606.487 58.0455C606.487 57.6667 606.354 57.3494 606.089 57.0938C605.824 56.8333 605.417 56.6392 604.867 56.5114L603.049 56.0852C602.05 55.8485 601.316 55.4815 600.847 54.9844C600.383 54.4825 600.151 53.8551 600.151 53.1023C600.151 52.4867 600.324 51.9422 600.67 51.4688C601.02 50.9953 601.496 50.6236 602.097 50.3537C602.704 50.0838 603.39 49.9489 604.157 49.9489C605.237 49.9489 606.084 50.1856 606.7 50.6591C607.32 51.1326 607.76 51.7576 608.021 52.5341Z" fill="white"/>
<path d="M705.966 61.2273C704.943 61.2273 704.063 60.9858 703.324 60.5028C702.585 60.0199 702.017 59.3546 701.619 58.5071C701.222 57.6596 701.023 56.6913 701.023 55.6023C701.023 54.4943 701.226 53.5166 701.634 52.669C702.045 51.8168 702.618 51.1515 703.352 50.6733C704.091 50.1903 704.953 49.9489 705.938 49.9489C706.705 49.9489 707.396 50.0909 708.011 50.375C708.627 50.6591 709.131 51.0568 709.524 51.5682C709.917 52.0795 710.161 52.6761 710.256 53.358H708.58C708.452 52.8608 708.168 52.4205 707.727 52.0369C707.292 51.6487 706.705 51.4545 705.966 51.4545C705.313 51.4545 704.74 51.625 704.247 51.9659C703.759 52.3021 703.378 52.7779 703.104 53.3935C702.834 54.0043 702.699 54.7216 702.699 55.5455C702.699 56.3883 702.831 57.1222 703.097 57.7472C703.366 58.3722 703.745 58.8575 704.233 59.2031C704.725 59.5488 705.303 59.7216 705.966 59.7216C706.402 59.7216 706.797 59.6458 707.152 59.4943C707.507 59.3428 707.808 59.125 708.054 58.8409C708.3 58.5568 708.475 58.2159 708.58 57.8182H710.256C710.161 58.4621 709.927 59.0421 709.553 59.5582C709.183 60.0696 708.693 60.4768 708.082 60.7798C707.476 61.0781 706.771 61.2273 705.966 61.2273ZM716.838 61.2273C715.853 61.2273 714.989 60.9929 714.245 60.5241C713.507 60.0554 712.929 59.3996 712.512 58.5568C712.101 57.714 711.895 56.7292 711.895 55.6023C711.895 54.4659 712.101 53.474 712.512 52.6264C712.929 51.7789 713.507 51.1207 714.245 50.652C714.989 50.1832 715.853 49.9489 716.838 49.9489C717.823 49.9489 718.684 50.1832 719.423 50.652C720.166 51.1207 720.744 51.7789 721.156 52.6264C721.573 53.474 721.781 54.4659 721.781 55.6023C721.781 56.7292 721.573 57.714 721.156 58.5568C720.744 59.3996 720.166 60.0554 719.423 60.5241C718.684 60.9929 717.823 61.2273 716.838 61.2273ZM716.838 59.7216C717.586 59.7216 718.201 59.5298 718.684 59.1463C719.167 58.7628 719.525 58.2585 719.757 57.6335C719.989 57.0085 720.105 56.3314 720.105 55.6023C720.105 54.8731 719.989 54.1937 719.757 53.5639C719.525 52.9342 719.167 52.4252 718.684 52.0369C718.201 51.6487 717.586 51.4545 716.838 51.4545C716.09 51.4545 715.474 51.6487 714.991 52.0369C714.508 52.4252 714.151 52.9342 713.919 53.5639C713.687 54.1937 713.571 54.8731 713.571 55.6023C713.571 56.3314 713.687 57.0085 713.919 57.6335C714.151 58.2585 714.508 58.7628 714.991 59.1463C715.474 59.5298 716.09 59.7216 716.838 59.7216ZM725.716 54.4375V61H724.04V50.0909H725.659V51.7955H725.801C726.057 51.2415 726.445 50.7964 726.966 50.4602C727.487 50.1193 728.159 49.9489 728.983 49.9489C729.721 49.9489 730.368 50.1004 730.922 50.4034C731.476 50.7017 731.907 51.1562 732.214 51.767C732.522 52.3731 732.676 53.1402 732.676 54.0682V61H731V54.1818C731 53.3248 730.777 52.6572 730.332 52.179C729.887 51.696 729.276 51.4545 728.5 51.4545C727.965 51.4545 727.487 51.5705 727.065 51.8026C726.648 52.0346 726.319 52.3731 726.078 52.8182C725.836 53.2633 725.716 53.803 725.716 54.4375ZM740.183 50.0909V51.5114H734.53V50.0909H740.183ZM736.177 47.4773H737.854V57.875C737.854 58.3485 737.922 58.7036 738.06 58.9403C738.202 59.1723 738.381 59.3286 738.599 59.4091C738.822 59.4848 739.056 59.5227 739.302 59.5227C739.487 59.5227 739.639 59.5133 739.757 59.4943C739.875 59.4706 739.97 59.4517 740.041 59.4375L740.382 60.9432C740.268 60.9858 740.11 61.0284 739.906 61.071C739.703 61.1184 739.444 61.142 739.132 61.142C738.658 61.142 738.194 61.0402 737.74 60.8366C737.29 60.633 736.916 60.3229 736.618 59.9062C736.324 59.4896 736.177 58.964 736.177 58.3295V47.4773ZM745.615 61.2557C744.923 61.2557 744.296 61.1255 743.733 60.8651C743.169 60.5999 742.722 60.2188 742.39 59.7216C742.059 59.2197 741.893 58.6136 741.893 57.9034C741.893 57.2784 742.016 56.7718 742.262 56.3835C742.509 55.9905 742.838 55.6828 743.25 55.4602C743.662 55.2377 744.116 55.072 744.613 54.9631C745.115 54.8494 745.619 54.7595 746.126 54.6932C746.789 54.608 747.326 54.544 747.738 54.5014C748.155 54.4541 748.458 54.3759 748.647 54.267C748.841 54.1581 748.938 53.9687 748.938 53.6989V53.642C748.938 52.9413 748.747 52.3968 748.363 52.0085C747.984 51.6203 747.409 51.4261 746.637 51.4261C745.837 51.4261 745.21 51.6013 744.755 51.9517C744.301 52.3021 743.981 52.6761 743.796 53.0739L742.206 52.5057C742.49 51.8428 742.868 51.3267 743.342 50.9574C743.82 50.5833 744.341 50.3229 744.904 50.1761C745.473 50.0246 746.031 49.9489 746.581 49.9489C746.931 49.9489 747.333 49.9915 747.788 50.0767C748.247 50.1572 748.69 50.3253 749.116 50.581C749.547 50.8366 749.904 51.2225 750.188 51.7386C750.473 52.2547 750.615 52.946 750.615 53.8125V61H748.938V59.5227H748.853C748.74 59.7595 748.55 60.0128 748.285 60.2827C748.02 60.5526 747.667 60.7822 747.227 60.9716C746.787 61.161 746.249 61.2557 745.615 61.2557ZM745.87 59.75C746.533 59.75 747.092 59.6198 747.546 59.3594C748.006 59.099 748.351 58.7628 748.583 58.3509C748.82 57.9389 748.938 57.5057 748.938 57.0511V55.517C748.867 55.6023 748.711 55.6804 748.47 55.7514C748.233 55.8177 747.958 55.8769 747.646 55.929C747.338 55.9763 747.037 56.0189 746.744 56.0568C746.455 56.09 746.221 56.1184 746.041 56.142C745.605 56.1989 745.198 56.2912 744.819 56.419C744.445 56.5421 744.142 56.7292 743.91 56.9801C743.683 57.2263 743.569 57.5625 743.569 57.9886C743.569 58.571 743.785 59.0114 744.215 59.3097C744.651 59.6032 745.203 59.75 745.87 59.75ZM757.806 61.2273C756.783 61.2273 755.902 60.9858 755.164 60.5028C754.425 60.0199 753.857 59.3546 753.459 58.5071C753.061 57.6596 752.863 56.6913 752.863 55.6023C752.863 54.4943 753.066 53.5166 753.473 52.669C753.885 51.8168 754.458 51.1515 755.192 50.6733C755.931 50.1903 756.792 49.9489 757.777 49.9489C758.544 49.9489 759.236 50.0909 759.851 50.375C760.467 50.6591 760.971 51.0568 761.364 51.5682C761.757 52.0795 762.001 52.6761 762.096 53.358H760.419C760.292 52.8608 760.007 52.4205 759.567 52.0369C759.132 51.6487 758.544 51.4545 757.806 51.4545C757.152 51.4545 756.579 51.625 756.087 51.9659C755.599 52.3021 755.218 52.7779 754.944 53.3935C754.674 54.0043 754.539 54.7216 754.539 55.5455C754.539 56.3883 754.671 57.1222 754.936 57.7472C755.206 58.3722 755.585 58.8575 756.073 59.2031C756.565 59.5488 757.143 59.7216 757.806 59.7216C758.241 59.7216 758.637 59.6458 758.992 59.4943C759.347 59.3428 759.648 59.125 759.894 58.8409C760.14 58.5568 760.315 58.2159 760.419 57.8182H762.096C762.001 58.4621 761.766 59.0421 761.392 59.5582C761.023 60.0696 760.533 60.4768 759.922 60.7798C759.316 61.0781 758.611 61.2273 757.806 61.2273ZM768.99 50.0909V51.5114H763.337V50.0909H768.99ZM764.984 47.4773H766.661V57.875C766.661 58.3485 766.729 58.7036 766.867 58.9403C767.009 59.1723 767.189 59.3286 767.406 59.4091C767.629 59.4848 767.863 59.5227 768.109 59.5227C768.294 59.5227 768.446 59.5133 768.564 59.4943C768.682 59.4706 768.777 59.4517 768.848 59.4375L769.189 60.9432C769.075 60.9858 768.917 61.0284 768.713 61.071C768.51 61.1184 768.251 61.142 767.939 61.142C767.466 61.142 767.001 61.0402 766.547 60.8366C766.097 60.633 765.723 60.3229 765.425 59.9062C765.131 59.4896 764.984 58.964 764.984 58.3295V47.4773Z" fill="white"/>
</svg>
